<?xml version="1.0" standalone="no"?>
<!DOCTYPE svg PUBLIC "-//W3C//DTD SVG 20010904//EN"
 "http://www.w3.org/TR/2001/REC-SVG-20010904/DTD/svg10.dtd">
<svg version="1.0" xmlns="http://www.w3.org/2000/svg"
 width="128.000000pt" height="118.000000pt" viewBox="0 0 128.000000 118.000000"
 preserveAspectRatio="xMidYMid meet">
<metadata>
Created by potrace 1.10, written by Peter Selinger 2001-2011
</metadata>
<g transform="translate(0.000000,118.000000) scale(0.100000,-0.100000)"
fill="#000000" stroke="none">
<path d="M270 1052 c0 -4 21 -79 46 -167 70 -244 73 -225 -85 -543 -72 -144
-131 -265 -131 -267 0 -22 53 34 276 288 141 160 259 293 263 295 4 1 123
-130 265 -293 142 -162 264 -295 272 -295 9 0 -35 98 -118 265 -163 328 -160
308 -90 553 29 102 45 172 38 172 -6 0 -89 -88 -184 -195 -95 -107 -176 -195
-181 -195 -4 0 -85 88 -180 195 -157 177 -191 210 -191 187z"/>
</g>
</svg>
