<svg width="108" height="25" viewBox="0 0 108 25" fill="none" xmlns="http://www.w3.org/2000/svg">
<path d="M95.0274 17.8333L100.035 12.5374L95.0068 7.2002H97.3972L101.23 11.2597L105.022 7.2002H107.433L102.425 12.5168L107.392 17.8333H105.001L101.209 13.815L97.4178 17.8333H95.0274Z" fill="white"/>
<path d="M88.6416 17.8323V7.57007H89.6719V9.98107C89.8505 9.21175 90.2421 8.60728 90.8465 8.16767C91.451 7.71432 92.1585 7.44643 92.969 7.364C93.3812 7.32279 93.807 7.33653 94.2467 7.40522C94.6863 7.46017 95.1328 7.57007 95.5861 7.73493V8.88891C95.3388 8.77901 94.9748 8.67597 94.4939 8.57981C94.0269 8.48364 93.5941 8.43556 93.1957 8.43556C92.5775 8.43556 92.0417 8.54546 91.5884 8.76527C91.1488 8.98507 90.7847 9.28731 90.4962 9.67197C90.2077 10.0429 89.9948 10.4825 89.8574 10.9908C89.7338 11.4991 89.6719 12.0418 89.6719 12.6187V17.8323H88.6416Z" fill="white"/>
<path d="M86.4764 17.8325V15.5864C86.3253 15.9298 86.1124 16.2458 85.8376 16.5343C85.5628 16.8091 85.24 17.0495 84.8691 17.2555C84.5119 17.4616 84.1204 17.6333 83.6945 17.7707C83.2686 17.8944 82.8359 17.9768 82.3962 18.018C81.7643 18.1004 81.1324 18.0936 80.5004 17.9974C79.8822 17.915 79.319 17.7432 78.8107 17.4822C78.3161 17.2075 77.9177 16.8434 77.6155 16.3901C77.3132 15.9367 77.1621 15.3803 77.1621 14.7209C77.1621 14.0752 77.2995 13.56 77.5742 13.1754C77.8627 12.777 78.2268 12.4748 78.6664 12.2687C79.1198 12.0626 79.6075 11.9252 80.1295 11.8565C80.6653 11.7879 81.1736 11.7535 81.6544 11.7535H85.7552C86.0711 11.7535 86.2635 11.678 86.3322 11.5268C86.4146 11.3757 86.4558 11.1903 86.4558 10.9705C86.4558 10.3935 86.3322 9.94011 86.0849 9.6104C85.8513 9.26696 85.5422 9.00594 85.1576 8.82734C84.7866 8.64875 84.3676 8.53198 83.9005 8.47703C83.4472 8.42208 82.9938 8.3946 82.5405 8.3946C82.252 8.3946 81.8879 8.42894 81.4483 8.49763C81.0087 8.55259 80.5828 8.66249 80.1707 8.82734C79.7723 8.9922 79.4289 9.21887 79.1404 9.50737C78.8519 9.79587 78.7076 10.1805 78.7076 10.6614H77.6773C77.6773 10.0569 77.8147 9.54858 78.0894 9.13645C78.3779 8.71057 78.7557 8.36712 79.2228 8.1061C79.6899 7.84508 80.2119 7.65962 80.7889 7.54972C81.3659 7.42608 81.9498 7.36426 82.5405 7.36426C83.2549 7.36426 83.9143 7.42608 84.5188 7.54972C85.1232 7.65962 85.6453 7.85195 86.0849 8.12671C86.5245 8.40147 86.8679 8.77239 87.1152 9.23948C87.3625 9.70657 87.4861 10.2904 87.4861 10.9911V17.8325H86.4764ZM86.4558 13.7112V12.619H81.6956C81.1049 12.619 80.5897 12.6602 80.1501 12.7426C79.7105 12.8251 79.3464 12.9487 79.0579 13.1136C78.7832 13.2784 78.5771 13.4914 78.4397 13.7524C78.3024 14.0134 78.2337 14.3225 78.2337 14.6797C78.2337 14.9957 78.3092 15.2979 78.4603 15.5864C78.6115 15.8749 78.8244 16.129 79.0992 16.3488C79.3877 16.5686 79.738 16.7472 80.1501 16.8846C80.5622 17.0083 81.0293 17.0769 81.5514 17.0907C82.1284 17.1044 82.7053 17.0426 83.2823 16.9052C83.8731 16.7541 84.402 16.5412 84.8691 16.2664C85.3362 15.9916 85.7208 15.6551 86.0231 15.2567C86.3253 14.8445 86.4764 14.3775 86.4764 13.8554V13.7112H86.4558Z" fill="white"/>
<path d="M65.4754 19.275H66.4852C66.6088 19.6871 66.7943 20.0237 67.0415 20.2847C67.3026 20.5595 67.6117 20.7793 67.9689 20.9442C68.326 21.109 68.7382 21.2258 69.2053 21.2945C69.6724 21.3632 70.1807 21.3975 70.7302 21.3975C71.3758 21.3975 71.9666 21.3014 72.5024 21.109C73.0381 20.9167 73.4984 20.6625 73.883 20.3466C74.2677 20.0306 74.563 19.6597 74.7691 19.2338C74.9889 18.8217 75.0988 18.3889 75.0988 17.9356V15.2361C74.8241 15.7032 74.5081 16.1153 74.1509 16.4725C73.7937 16.8159 73.4091 17.1044 72.9969 17.338C72.5848 17.5715 72.152 17.7432 71.6987 17.8531C71.2591 17.9768 70.8057 18.0386 70.3386 18.0386C69.5006 18.0386 68.745 17.9012 68.0719 17.6265C67.4125 17.3517 66.8423 16.9739 66.3615 16.4931C65.8944 16.0123 65.5304 15.449 65.2694 14.8033C65.0221 14.1576 64.8984 13.4639 64.8984 12.722C64.8984 11.9802 65.0221 11.2864 65.2694 10.6407C65.5304 9.98133 65.8944 9.4112 66.3615 8.93038C66.8423 8.44955 67.4125 8.07176 68.0719 7.797C68.7313 7.50851 69.4663 7.36426 70.2768 7.36426C70.9225 7.36426 71.4995 7.43295 72.0078 7.57033C72.5161 7.69397 72.9626 7.87256 73.3472 8.1061C73.7456 8.33965 74.0822 8.62814 74.357 8.97159C74.6455 9.3013 74.8928 9.67222 75.0988 10.0844V7.57033H76.1292V17.8325C76.1292 18.4645 75.9987 19.0552 75.7376 19.6047C75.4766 20.1542 75.1057 20.6351 74.6249 21.0472C74.1578 21.4593 73.5877 21.789 72.9145 22.0363C72.2413 22.2836 71.4926 22.4141 70.6683 22.4279C70.0089 22.4416 69.377 22.3798 68.7725 22.2424C68.1681 22.1188 67.6254 21.9196 67.1446 21.6448C66.6775 21.3838 66.2928 21.0541 65.9906 20.6557C65.6884 20.2573 65.5166 19.7971 65.4754 19.275ZM65.9288 12.722C65.9288 13.3402 66.0318 13.9104 66.2379 14.4324C66.4577 14.9544 66.7599 15.4078 67.1446 15.7925C67.543 16.1771 68.0169 16.4794 68.5665 16.6992C69.116 16.9052 69.7342 17.0083 70.4211 17.0083C71.108 17.0083 71.7399 16.8846 72.3169 16.6373C72.8939 16.3763 73.3885 16.0397 73.8006 15.6276C74.2127 15.2155 74.5356 14.7484 74.7691 14.2263C75.0027 13.7043 75.1194 13.1823 75.1194 12.6602C75.1194 12.1107 75.0027 11.5681 74.7691 11.0323C74.5356 10.4965 74.2127 10.0226 73.8006 9.61046C73.3885 9.18458 72.8939 8.84801 72.3169 8.60073C71.7399 8.33971 71.108 8.2092 70.4211 8.2092C69.7342 8.2092 69.116 8.33284 68.5665 8.58012C68.0169 8.81366 67.543 9.12277 67.1446 9.50743C66.7599 9.89209 66.4577 10.3523 66.2379 10.8881C66.0318 11.4101 65.9288 11.9802 65.9288 12.5985V12.722Z" fill="white"/>
<path d="M53.5098 17.8331V7.57087H54.5401V9.98187C54.8423 9.4461 55.1995 8.99961 55.6117 8.64243C56.0238 8.28524 56.4703 8.00362 56.9511 7.79755C57.4319 7.59148 57.9471 7.46097 58.4966 7.40602C59.0461 7.35107 59.6025 7.3648 60.1658 7.44723C60.784 7.5434 61.3129 7.71512 61.7525 7.9624C62.1921 8.20968 62.5562 8.51879 62.8447 8.88971C63.1332 9.26063 63.3392 9.70025 63.4629 10.2085C63.6003 10.7031 63.6689 11.2526 63.6689 11.8571V17.8331H62.6386V11.8983C62.6386 11.3351 62.5699 10.8405 62.4325 10.4146C62.3089 9.975 62.1028 9.61095 61.8143 9.32245C61.5258 9.02022 61.148 8.79354 60.6809 8.64243C60.2276 8.47757 59.6643 8.39515 58.9912 8.39515C58.2631 8.39515 57.6243 8.51879 57.0747 8.76607C56.5252 8.99961 56.0581 9.31559 55.6735 9.71398C55.3026 10.1124 55.0209 10.5726 54.8286 11.0946C54.6363 11.6167 54.5401 12.1662 54.5401 12.7432V17.8331H53.5098Z" fill="white"/>
<path d="M51.7782 17.8325V15.5864C51.627 15.9298 51.4141 16.2458 51.1393 16.5343C50.8646 16.8091 50.5417 17.0495 50.1708 17.2555C49.8136 17.4616 49.4221 17.6333 48.9962 17.7707C48.5704 17.8944 48.1376 17.9768 47.698 18.018C47.0661 18.1004 46.4341 18.0936 45.8022 17.9974C45.184 17.915 44.6207 17.7432 44.1124 17.4822C43.6178 17.2075 43.2195 16.8434 42.9172 16.3901C42.615 15.9367 42.4639 15.3803 42.4639 14.7209C42.4639 14.0752 42.6012 13.56 42.876 13.1754C43.1645 12.777 43.5286 12.4748 43.9682 12.2687C44.4215 12.0626 44.9092 11.9252 45.4313 11.8565C45.967 11.7879 46.4753 11.7535 46.9562 11.7535H51.0569C51.3729 11.7535 51.5652 11.678 51.6339 11.5268C51.7163 11.3757 51.7576 11.1903 51.7576 10.9705C51.7576 10.3935 51.6339 9.94011 51.3866 9.6104C51.1531 9.26696 50.844 9.00594 50.4593 8.82734C50.0884 8.64875 49.6694 8.53198 49.2023 8.47703C48.749 8.42208 48.2956 8.3946 47.8423 8.3946C47.5538 8.3946 47.1897 8.42894 46.7501 8.49763C46.3105 8.55259 45.8846 8.66249 45.4725 8.82734C45.0741 8.9922 44.7306 9.21887 44.4421 9.50737C44.1536 9.79587 44.0094 10.1805 44.0094 10.6614H42.979C42.979 10.0569 43.1164 9.54858 43.3912 9.13645C43.6797 8.71057 44.0575 8.36712 44.5246 8.1061C44.9916 7.84508 45.5137 7.65962 46.0907 7.54972C46.6677 7.42608 47.2515 7.36426 47.8423 7.36426C48.5566 7.36426 49.216 7.42608 49.8205 7.54972C50.425 7.65962 50.947 7.85195 51.3866 8.12671C51.8262 8.40147 52.1697 8.77239 52.417 9.23948C52.6643 9.70657 52.7879 10.2904 52.7879 10.9911V17.8325H51.7782ZM51.7576 13.7112V12.619H46.9974C46.4066 12.619 45.8915 12.6602 45.4519 12.7426C45.0122 12.8251 44.6482 12.9487 44.3597 13.1136C44.0849 13.2784 43.8789 13.4914 43.7415 13.7524C43.6041 14.0134 43.5354 14.3225 43.5354 14.6797C43.5354 14.9957 43.611 15.2979 43.7621 15.5864C43.9132 15.8749 44.1262 16.129 44.4009 16.3488C44.6894 16.5686 45.0397 16.7472 45.4519 16.8846C45.864 17.0083 46.3311 17.0769 46.8531 17.0907C47.4301 17.1044 48.0071 17.0426 48.5841 16.9052C49.1748 16.7541 49.7037 16.5412 50.1708 16.2664C50.6379 15.9916 51.0225 15.6551 51.3248 15.2567C51.627 14.8445 51.7782 14.3775 51.7782 13.8554V13.7112H51.7576Z" fill="white"/>
<path d="M29.8008 17.8331V3.98535H30.8929V10.1674H40.743V3.98535H41.8352V17.8331H40.743V11.0947H30.8929V17.8331H29.8008Z" fill="white"/>
<path d="M21.4596 0.706815C21.8103 0.319578 22.2287 0.50116 22.1694 0.706798C21.0788 4.52594 20.1048 7.85098 20.0758 7.95066C19.6441 9.43871 19.6095 10.7833 20.2375 12.2906C20.2889 12.4141 26.1088 24.0506 26.2006 24.2464C26.303 24.4651 25.9225 24.8156 25.4588 24.3149C25.3862 24.2365 13.367 10.491 13.2051 10.3169C13.0433 10.1428 13.1199 10.0913 13.2051 9.99577C13.2904 9.90026 21.251 0.937139 21.4596 0.706815Z" fill="white"/>
<path d="M4.75819 0.706815C4.40743 0.319578 3.98903 0.50116 4.04838 0.706798C5.13893 4.52594 6.11301 7.85098 6.14193 7.95066C6.57365 9.43871 6.6083 10.7833 5.98027 12.2906C5.92883 12.4141 0.108943 24.0506 0.0172195 24.2464C-0.0852556 24.4651 0.295279 24.8156 0.758943 24.3149C0.831594 24.2365 12.8508 10.491 13.0126 10.3169C13.1745 10.1428 13.0979 10.0913 13.0126 9.99577C12.9274 9.90026 4.96682 0.937139 4.75819 0.706815Z" fill="white"/>
</svg>
